<svg version="1.1" id="Layer_1" xmlns="http://www.w3.org/2000/svg" xmlns:xlink="http://www.w3.org/1999/xlink" x="0" y="0" viewBox="0 0 2048 1200" xml:space="preserve"><style>.st2{fill:#fff}.st5{fill:#6db344}.st6{fill:#96c331}.st7,.st8{fill-rule:evenodd;clip-rule:evenodd;fill:#318d43}.st8{fill:#3c8632}</style><path fill="#e5e5e5" d="M0 0h2048v1200H0z"/><defs><path id="SVGID_1_" d="M0 0h2048v1200H0z"/></defs><clipPath id="SVGID_00000078007390017749296100000000627390320265725069_"><use xlink:href="#SVGID_1_" overflow="visible"/></clipPath><g clip-path="url(#SVGID_00000078007390017749296100000000627390320265725069_)"><path class="st2" d="M0 0h2048v1200H0z"/><path d="M0 0h2048v1200H0V0z" fill="#ecf9fb"/><path class="st2" d="M936.3 108.1c40 0 73.8 26.9 84.2 63.6H852.1c10.4-36.7 44.3-63.6 84.2-63.6zm-229.8 0c40 0 73.8 26.9 84.2 63.6H622.3c10.5-36.7 44.2-63.6 84.2-63.6z"/><path class="st2" d="M816 81c57.1 0 105.3 38.3 120.4 90.6H695.7C710.6 119.3 758.8 81 816 81zM694.3 243.1c25.9 0 47.7 17.3 54.5 41.1h-109c6.6-23.6 28.5-41.1 54.5-41.1zm-148.8 0c25.9 0 47.7 17.3 54.5 41.1H491c6.8-23.6 28.6-41.1 54.5-41.1z"/><path class="st2" d="M616.3 225.6c37 0 68.2 24.8 77.9 58.8H538.6c9.5-34 40.7-58.8 77.7-58.8zm1480 34.9c25.9 0 47.7 17.3 54.5 41.1h-109c6.6-23.6 28.5-41.1 54.5-41.1zm-148.8 0c25.9 0 47.7 17.3 54.5 41.1h-109c6.8-23.6 28.6-41.1 54.5-41.1z"/><path class="st2" d="M2018.3 243c37 0 68.2 24.8 77.9 58.8h-155.7c9.6-34 40.8-58.8 77.8-58.8zm-1870-90.5c25.9 0 47.7 17.3 54.5 41.1h-109c6.6-23.6 28.5-41.1 54.5-41.1zm-148.8 0c25.9 0 47.7 17.3 54.5 41.1H-55c6.8-23.6 28.6-41.1 54.5-41.1z"/><path class="st2" d="M70.3 135c37 0 68.2 24.8 77.9 58.8H-7.4c9.5-34 40.7-58.8 77.7-58.8zm1222.8 167.4c11.1 0 20.3 7.4 23.3 17.5h-46.6c3-10.2 12.3-17.5 23.3-17.5zm-63.4 0c11.1 0 20.3 7.4 23.3 17.5h-46.6c3-10.2 12.3-17.5 23.3-17.5z"/><path class="st2" d="M1259.9 294.8c15.9 0 29.1 10.6 33.2 25.1h-66.4c4.2-14.5 17.4-25.1 33.2-25.1zm659.8-136.2c11.1 0 20.3 7.4 23.3 17.5h-46.6c3-10.2 12.2-17.5 23.3-17.5zm-63.4 0c11.1 0 20.3 7.4 23.3 17.5H1833c3-10.2 12.2-17.5 23.3-17.5z"/><path class="st2" d="M1886.5 151c15.8 0 29.1 10.6 33.2 25.1h-66.4c4.1-14.5 17.3-25.1 33.2-25.1z"/><path d="M0 1200V960.3c3.6-1.3 7.5-3.1 11.1-5.8C147.5 888 277.2 779.5 418.6 748l1.8-.4c9.9-2.1 19.6-4.1 29.6-5.4 73.2-10.2 146.7-1.3 220.2 12.8 79.6 15.5 159.5 36.8 239.1 46.1 72.4 8.4 144.7 7.1 216.8-1.3 22.6-2.7 45.1-5.8 67.6-9.7 102.4-17.7 204.6-48.3 305.6-83.3 182.9-63.4 370.8-149.3 548.7-241.9v735H0z" fill="#daeab5"/><path class="st5" d="M887.5 948c0 10.2 4.8 19.6 12.2 25.5h41c5.7-4.6 9.8-10.9 11.3-18.1.7-2.4.9-4.8.9-7.4 0-18.1-14.6-32.7-32.7-32.7-8.3 0-15.9 3.1-21.8 8.3-6.7 5.9-10.9 14.6-10.9 24.4z"/><path class="st6" d="M897.6 931.5c0 17.9 14.6 32.5 32.5 32.5 8.5 0 16.1-3.3 22-8.5.7-2.4.9-4.8.9-7.4 0-18.1-14.6-32.7-32.7-32.7-8.3 0-15.9 3.1-21.8 8.3-.7 2.5-.9 5.1-.9 7.8z"/><path class="st5" d="M897.6 908.1c0 12.4 10.2 22.7 22.7 22.7 10 0 18.7-6.5 21.6-15.7.7-2.2 1.1-4.6 1.1-7 0-12.4-10.2-22.7-22.7-22.7-5.2 0-10 1.7-14 4.8-5.2 4.2-8.7 10.5-8.7 17.9z"/><path class="st6" d="M905.2 897c0 12.4 10.2 22.7 22.7 22.7 5.2 0 10-1.7 14-4.8.7-2.2 1.1-4.6 1.1-7 0-12.4-10.2-22.7-22.7-22.7-5.2 0-10 1.7-14 4.8-.7 2.4-1.1 4.6-1.1 7z"/><path class="st5" d="M142.8 1046.6c0 10.2 4.8 19.6 12.2 25.5h41c5.7-4.6 9.8-10.9 11.3-18.1.7-2.4.9-4.8.9-7.4 0-18.1-14.6-32.7-32.7-32.7-8.3 0-15.9 3.1-21.8 8.3-6.8 5.8-10.9 14.6-10.9 24.4z"/><path class="st6" d="M152.8 1030c0 17.9 14.6 32.5 32.5 32.5 8.5 0 16.1-3.3 22-8.5.7-2.4.9-4.8.9-7.4 0-18.1-14.6-32.7-32.7-32.7-8.3 0-15.9 3.1-21.8 8.3-.7 2.6-.9 5.2-.9 7.8z"/><path class="st5" d="M152.8 1006.7c0 12.4 10.2 22.7 22.7 22.7 10 0 18.7-6.5 21.6-15.7.7-2.2 1.1-4.6 1.1-7 0-12.4-10.2-22.7-22.7-22.7-5.2 0-10 1.7-14 4.8-5.2 4.1-8.7 10.5-8.7 17.9z"/><path class="st6" d="M160.5 995.6c0 12.4 10.2 22.7 22.7 22.7 5.2 0 10-1.7 14-4.8.7-2.2 1.1-4.6 1.1-7 0-12.4-10.2-22.7-22.7-22.7-5.2 0-10 1.7-14 4.8-.7 2.4-1.1 4.6-1.1 7z"/><path class="st5" d="M1255.9 865.5c0 10.2 4.8 19.6 12.2 25.5h41c5.7-4.6 9.8-10.9 11.3-18.1.7-2.4.9-4.8.9-7.4 0-18.1-14.6-32.7-32.7-32.7-8.3 0-15.9 3.1-21.8 8.3-6.6 5.8-10.9 14.6-10.9 24.4z"/><path class="st6" d="M1265.9 848.9c0 17.9 14.6 32.5 32.5 32.5 8.5 0 16.1-3.3 22-8.5.7-2.4.9-4.8.9-7.4 0-18.1-14.6-32.7-32.7-32.7-8.3 0-15.9 3.1-21.8 8.3-.4 2.3-.9 5.2-.9 7.8z"/><path class="st5" d="M1265.9 825.4c0 12.4 10.2 22.7 22.7 22.7 10 0 18.8-6.5 21.6-15.7.6-2.2 1.1-4.6 1.1-7 0-12.4-10.2-22.7-22.7-22.7-5.2 0-10 1.7-13.9 4.8-5.3 4.1-8.8 10.7-8.8 17.9z"/><path class="st6" d="M1273.8 814.5c0 12.4 10.2 22.7 22.7 22.7 5.2 0 10-1.7 14-4.8.7-2.2 1.1-4.6 1.1-7 0-12.4-10.2-22.7-22.7-22.7-5.2 0-10 1.7-14 4.8-.9 2.2-1.1 4.6-1.1 7z"/><path class="st5" d="M959 876.3c0 30.5 25.9 55.2 56.9 53 18.1-1.3 33.8-11.8 42.3-26.6 4.2-7.4 6.8-15.7 7-24.6.4-13.3-3.9-25.3-11.5-34.9-4.6-5.9-5.9-13.5-3.5-20.5 1.3-4.1 2.2-8.5 2.2-13.1 0-23.1-19.4-41.6-42.9-40.1-6.3.4-12.4 2.4-17.7 5.5-11.3 6.5-19.2 18.5-20.1 32.3-.2 5.4.4 10.5 2 15.3 2.4 7.2 1.3 14.8-3.5 20.7-6.8 9-11.2 20.6-11.2 33z"/><path class="st6" d="M988 804.6c0 49.1 30.3 89.8 70.2 98.1 4.2-7.4 6.8-15.7 7-24.6.4-13.3-3.9-25.3-11.5-34.9-4.6-5.9-5.9-13.5-3.5-20.5 1.3-4.1 2.2-8.5 2.2-13.1 0-23.1-19.4-41.6-42.9-40.1-6.3.4-12.4 2.4-17.7 5.5-2.2 9.3-3.8 19.3-3.8 29.6z"/><path class="st7" d="M1012.2 821.4c-1.8 0-3.3 1.5-3.3 3.3v134.1c0 1.8 1.5 3.3 3.3 3.3 1.8 0 3.3-1.5 3.3-3.3V824.6c0-1.8-1.5-3.2-3.3-3.2z"/><path class="st7" d="M989.4 878.6c-1.3 1.3-1.3 3.3 0 4.6l20.5 20.5c1.3 1.3 3.4 1.3 4.6 0 1.3-1.3 1.3-3.3 0-4.6L994 878.6c-1.2-1.3-3.3-1.3-4.6 0zm40-36.2c-1.3-1.3-3.3-1.3-4.6 0l-14.8 14.8c-1.3 1.3-1.3 3.3 0 4.6 1.3 1.3 3.4 1.3 4.6 0l14.8-14.8c1.3-1.3 1.3-3.3 0-4.6z"/><path class="st5" d="M214.3 974.8c0 30.5 25.9 55.2 56.9 53 18.1-1.3 33.8-11.8 42.3-26.6 4.1-7.4 6.8-15.7 7-24.6.4-13.3-3.9-25.3-11.6-34.9-4.6-5.9-5.9-13.5-3.5-20.5 1.3-4.1 2.2-8.5 2.2-13.1 0-23.1-19.4-41.6-42.9-40.1-6.3.4-12.4 2.4-17.7 5.5-11.3 6.5-19.2 18.5-20.1 32.3-.2 5.5.4 10.5 2 15.3 2.4 7.2 1.3 14.8-3.5 20.7-6.7 9.1-11.1 20.6-11.1 33z"/><path class="st6" d="M243.3 903.1c0 49 30.3 89.8 70.2 98.1 4.1-7.4 6.8-15.7 7-24.6.4-13.3-3.9-25.3-11.6-34.9-4.6-5.9-5.9-13.5-3.5-20.5 1.3-4.1 2.2-8.5 2.2-13.1 0-23.1-19.4-41.6-42.9-40.1-6.3.4-12.4 2.4-17.7 5.5-2.2 9.4-3.7 19.4-3.7 29.6z"/><path class="st7" d="M267.5 919.9c-1.8 0-3.3 1.5-3.3 3.3v134.1c0 1.8 1.5 3.3 3.3 3.3s3.3-1.5 3.3-3.3V923.2c0-1.8-1.5-3.3-3.3-3.3z"/><path class="st7" d="M244.7 977.1c-1.3 1.3-1.3 3.3 0 4.6l20.5 20.5c1.3 1.3 3.3 1.3 4.6 0 1.3-1.3 1.3-3.3 0-4.6l-20.5-20.5c-1.3-1.3-3.3-1.3-4.6 0zm39.9-36.2c-1.3-1.3-3.3-1.3-4.6 0l-14.8 14.8c-1.3 1.3-1.3 3.3 0 4.6 1.3 1.3 3.3 1.3 4.6 0l14.8-14.8c1.3-1.2 1.3-3.3 0-4.6z"/><path class="st5" d="M1594.3 969.7c0 30.5 26 55.2 56.9 53 18.1-1.3 33.8-11.8 42.3-26.6 4.1-7.4 6.8-15.7 7-24.6.4-13.3-3.9-25.3-11.6-34.9-4.6-5.9-5.9-13.5-3.5-20.5 1.3-4.1 2.2-8.5 2.2-13.1 0-23.1-19.4-41.6-43-40.1-6.3.4-12.4 2.4-17.7 5.5-11.3 6.5-19.2 18.5-20.1 32.3-.2 5.5.4 10.5 2 15.3 2.4 7.2 1.3 14.8-3.5 20.7-6.6 9-11 20.6-11 33z"/><path class="st6" d="M1623.3 898c0 49.1 30.3 89.8 70.2 98.1 4.1-7.4 6.8-15.7 7-24.6.4-13.3-3.9-25.3-11.6-34.9-4.6-5.9-5.9-13.5-3.5-20.5 1.3-4.1 2.2-8.5 2.2-13.1 0-23.1-19.4-41.6-43-40.1-6.3.4-12.4 2.4-17.7 5.5-2.2 9.3-3.6 19.4-3.6 29.6z"/><path class="st7" d="M1647.6 914.8c-1.8 0-3.3 1.5-3.3 3.3v134.1c0 1.8 1.5 3.3 3.3 3.3 1.8 0 3.3-1.5 3.3-3.3V918.1c-.1-1.9-1.6-3.3-3.3-3.3z"/><path class="st7" d="M1624.7 972c-1.3 1.3-1.3 3.3 0 4.6l20.5 20.5c1.3 1.3 3.3 1.3 4.6 0 1.3-1.3 1.3-3.3 0-4.6l-20.5-20.5c-1.2-1.3-3.3-1.3-4.6 0zm40-36.2c-1.3-1.3-3.4-1.3-4.6 0l-14.8 14.8c-1.3 1.3-1.3 3.3 0 4.6 1.3 1.3 3.3 1.3 4.6 0l14.8-14.8c1.3-1.2 1.3-3.3 0-4.6z"/><path class="st5" d="M1401.1 1012c0 30.5 25.9 55.1 56.9 53 18.1-1.3 33.8-11.8 42.3-26.6 4.1-7.4 6.8-15.7 7-24.6.4-13.3-3.9-25.3-11.6-34.9-4.6-5.9-5.9-13.5-3.5-20.5 1.3-4.1 2.2-8.5 2.2-13.1 0-23.1-19.4-41.6-42.9-40.1-6.3.4-12.4 2.4-17.7 5.5-11.3 6.5-19.2 18.5-20 32.3-.2 5.5.4 10.5 2 15.3 2.4 7.2 1.3 14.8-3.5 20.7-6.8 9-11.2 20.5-11.2 33z"/><path class="st6" d="M1430.1 940.4c0 49.1 30.3 89.8 70.2 98.1 4.1-7.4 6.8-15.7 7-24.6.4-13.3-3.9-25.3-11.6-34.9-4.6-5.9-5.9-13.5-3.5-20.5 1.3-4.1 2.2-8.5 2.2-13.1 0-23.1-19.4-41.6-42.9-40.1-6.3.4-12.4 2.4-17.7 5.5-2.1 9.1-3.7 19.2-3.7 29.6z"/><path class="st8" d="M1454.3 957.2c-1.8 0-3.3 1.5-3.3 3.3v134.1c0 1.8 1.5 3.3 3.3 3.3 1.8 0 3.3-1.5 3.3-3.3V960.5c0-1.8-1.5-3.3-3.3-3.3z"/><path class="st8" d="M1431.5 1014.4c-1.3 1.3-1.3 3.4 0 4.6l20.5 20.5c1.3 1.3 3.3 1.3 4.6 0 1.3-1.3 1.3-3.4 0-4.6l-20.5-20.5c-1.2-1.2-3.3-1.2-4.6 0zm39.9-36.4c-1.3-1.3-3.3-1.3-4.6 0l-14.8 15c-1.3 1.3-1.3 3.4 0 4.6 1.3 1.3 3.4 1.3 4.6 0l14.8-15c1.4-1.3 1.3-3.3 0-4.6z"/><path class="st5" d="M1526.5 1082.3c0 30.5 25.9 55.2 56.9 53 18.1-1.3 33.8-11.8 42.3-26.6 4.2-7.4 6.8-15.7 7-24.6.4-13.3-3.9-25.3-11.5-34.9-4.6-5.9-5.9-13.5-3.5-20.5 1.3-4.1 2.2-8.5 2.2-13.1 0-23.1-19.4-41.6-42.9-40.1-6.3.4-12.4 2.4-17.7 5.4-11.3 6.5-19.2 18.5-20 32.3-.2 5.5.4 10.5 2 15.3 2.4 7.2 1.3 14.8-3.5 20.7-6.9 9.1-11.3 20.5-11.3 33.1z"/><path class="st6" d="M1555.5 1010.6c0 49.1 30.3 89.8 70.2 98.1 4.2-7.4 6.8-15.7 7-24.6.4-13.3-3.9-25.3-11.5-34.9-4.6-5.9-5.9-13.5-3.5-20.5 1.3-4.1 2.2-8.5 2.2-13.1 0-23.1-19.4-41.6-42.9-40.1-6.3.4-12.4 2.4-17.7 5.4-2.2 9.2-3.8 19.2-3.8 29.7z"/><path class="st7" d="M1579.7 1027.4c-1.8 0-3.3 1.5-3.3 3.3v134.1c0 1.8 1.5 3.3 3.3 3.3 1.8 0 3.3-1.5 3.3-3.3v-134.1c0-1.9-1.5-3.3-3.3-3.3z"/><path class="st7" d="M1556.9 1084.6c-1.3 1.3-1.3 3.3 0 4.6l20.5 20.5c1.3 1.3 3.3 1.3 4.6 0 1.3-1.3 1.3-3.3 0-4.6l-20.5-20.5c-1.2-1.3-3.3-1.3-4.6 0zm40-36.2c-1.3-1.3-3.3-1.3-4.6 0l-14.8 14.8c-1.3 1.3-1.3 3.3 0 4.6 1.3 1.3 3.3 1.3 4.6 0l14.8-14.8c1.2-1.2 1.2-3.3 0-4.6z"/><path class="st5" d="M607.6 793.1c0 30.5 25.9 55.2 56.9 53 18.1-1.3 33.8-11.8 42.3-26.6 4.1-7.4 6.8-15.7 7-24.6.4-13.3-3.9-25.3-11.6-34.9-4.6-5.9-5.9-13.5-3.5-20.5 1.3-4.1 2.2-8.5 2.2-13.1 0-23.1-19.4-41.6-42.9-40.1-6.3.4-12.4 2.4-17.7 5.4-11.3 6.5-19.2 18.5-20.1 32.3-.2 5.5.4 10.5 2 15.3 2.4 7.2 1.3 14.8-3.5 20.7-6.7 9.2-11.1 20.5-11.1 33.1z"/><path class="st6" d="M636.6 721.4c0 49.1 30.3 89.8 70.2 98.1 4.1-7.4 6.8-15.7 7-24.6.4-13.3-3.9-25.3-11.6-34.9-4.6-5.9-5.9-13.5-3.5-20.5 1.3-4.1 2.2-8.5 2.2-13.1 0-23.1-19.4-41.6-42.9-40.1-6.3.4-12.4 2.4-17.7 5.4-2.2 9.2-3.7 19.3-3.7 29.7z"/><path class="st8" d="M660.8 738.2c-1.8 0-3.3 1.5-3.3 3.3v134.1c0 1.8 1.5 3.3 3.3 3.3 1.8 0 3.3-1.5 3.3-3.3V741.5c0-1.8-1.5-3.3-3.3-3.3z"/><path class="st8" d="M638 795.4c-1.3 1.3-1.3 3.3 0 4.6l20.5 20.5c1.3 1.3 3.3 1.3 4.6 0 1.3-1.3 1.3-3.3 0-4.6l-20.5-20.5c-1.3-1.3-3.3-1.3-4.6 0zm39.9-36.2c-1.3-1.3-3.3-1.3-4.6 0L658.5 774c-1.3 1.3-1.3 3.3 0 4.6 1.3 1.3 3.3 1.3 4.6 0l14.8-14.8c1.3-1.2 1.3-3.3 0-4.6z"/><path class="st5" d="M1847.6 675.4c0 30.5 25.9 55.2 56.9 53 18.1-1.3 33.8-11.8 42.3-26.6 4.2-7.4 6.8-15.7 7-24.6.4-13.3-3.9-25.3-11.5-34.9-4.6-5.9-5.9-13.5-3.5-20.5 1.3-4.1 2.2-8.5 2.2-13.1 0-23.1-19.4-41.6-42.9-40.1-6.3.4-12.4 2.4-17.7 5.5-11.3 6.5-19.2 18.5-20.1 32.3-.2 5.5.4 10.5 2 15.3 2.4 7.2 1.3 14.8-3.5 20.7-6.9 9-11.2 20.4-11.2 33z"/><path class="st6" d="M1876.6 603.7c0 49.1 30.3 89.8 70.2 98.1 4.2-7.4 6.8-15.7 7-24.6.4-13.3-3.9-25.3-11.5-34.9-4.6-5.9-5.9-13.5-3.5-20.5 1.3-4.1 2.2-8.5 2.2-13.1 0-23.1-19.4-41.6-42.9-40.1-6.3.4-12.4 2.4-17.7 5.5-2.3 9.1-3.8 19.1-3.8 29.6z"/><path class="st8" d="M1900.8 620.5c-1.8 0-3.3 1.5-3.3 3.3v134.1c0 1.8 1.5 3.3 3.3 3.3 1.8 0 3.3-1.5 3.3-3.3V623.8c-.1-1.9-1.5-3.3-3.3-3.3z"/><path class="st8" d="M1877.9 677.7c-1.3 1.3-1.3 3.3 0 4.6l20.5 20.5c1.3 1.3 3.3 1.3 4.6 0 1.3-1.3 1.3-3.3 0-4.6l-20.5-20.5c-1.2-1.3-3.3-1.3-4.6 0zm40-36.2c-1.3-1.3-3.3-1.3-4.6 0l-14.8 14.8c-1.3 1.3-1.3 3.3 0 4.6 1.3 1.3 3.4 1.3 4.6 0l14.8-14.8c1.3-1.3 1.3-3.3 0-4.6z"/><path class="st5" d="M467 857.9c0 30.5 25.9 55.2 56.9 53 18.1-1.3 33.8-11.8 42.3-26.6 4.1-7.4 6.8-15.7 7-24.6.4-13.3-3.9-25.3-11.6-34.9-4.6-5.9-5.9-13.5-3.5-20.5 1.3-4.1 2.2-8.5 2.2-13.1 0-23.1-19.4-41.6-42.9-40.1-6.3.4-12.4 2.4-17.7 5.5-11.3 6.5-19.2 18.5-20.1 32.3-.2 5.5.4 10.5 2 15.3 2.4 7.2 1.3 14.8-3.5 20.7-6.7 9-11.1 20.6-11.1 33z"/><path class="st6" d="M496.2 786.4c0 49.1 30.3 89.8 70.2 98.1 4.1-7.4 6.8-15.7 7-24.6.4-13.3-3.9-25.3-11.6-34.9-4.6-5.9-5.9-13.5-3.5-20.5 1.3-4.1 2.2-8.5 2.2-13.1 0-23.1-19.4-41.6-42.9-40.1-6.3.4-12.4 2.4-17.7 5.5-2.4 9.1-3.7 19.1-3.7 29.6z"/><path class="st8" d="M520.2 803c-1.8 0-3.3 1.5-3.3 3.3v134.1c0 1.8 1.5 3.3 3.3 3.3 1.8 0 3.3-1.5 3.3-3.3V806.2c0-1.8-1.5-3.2-3.3-3.2z"/><path class="st8" d="M497.4 860.2c-1.3 1.3-1.3 3.3 0 4.6l20.5 20.5c1.3 1.3 3.3 1.3 4.6 0 1.3-1.3 1.3-3.3 0-4.6L502 860.2c-1.3-1.3-3.3-1.3-4.6 0zm40.2-36.2c-1.3-1.3-3.3-1.3-4.6 0l-15 14.8c-1.3 1.3-1.3 3.3 0 4.6 1.3 1.3 3.3 1.3 4.6 0l15-14.8c1.2-1.3 1.2-3.3 0-4.6z"/><path class="st5" d="M1707 740.2c0 30.5 25.9 55.2 56.9 53 18.1-1.3 33.8-11.8 42.3-26.6 4.1-7.4 6.8-15.7 7-24.6.4-13.3-3.9-25.3-11.6-34.9-4.6-5.9-5.9-13.5-3.5-20.5 1.3-4.1 2.2-8.5 2.2-13.1 0-23.1-19.4-41.6-43-40.1-6.3.4-12.4 2.4-17.7 5.5-11.3 6.5-19.2 18.5-20.1 32.3-.2 5.5.4 10.5 2 15.3 2.4 7.2 1.3 14.8-3.5 20.7-6.7 9-11 20.5-11 33z"/><path class="st6" d="M1736.2 668.7c0 49.1 30.3 89.8 70.2 98.1 4.1-7.4 6.8-15.7 7-24.6.4-13.3-3.9-25.3-11.5-34.9-4.6-5.9-5.9-13.5-3.5-20.5 1.3-4.1 2.2-8.5 2.2-13.1 0-23.1-19.4-41.6-42.9-40.1-6.3.4-12.4 2.4-17.7 5.5-2.5 9.1-3.8 19.1-3.8 29.6z"/><path class="st8" d="M1760.2 685.2c-1.8 0-3.3 1.5-3.3 3.3v134.1c0 1.8 1.5 3.3 3.3 3.3 1.8 0 3.3-1.5 3.3-3.3V688.5c-.1-1.8-1.5-3.3-3.3-3.3z"/><path class="st8" d="M1737.3 742.4c-1.3 1.3-1.3 3.3 0 4.6l20.5 20.5c1.3 1.3 3.3 1.3 4.6 0 1.3-1.3 1.3-3.3 0-4.6l-20.5-20.5c-1.2-1.2-3.3-1.2-4.6 0zm40.2-36.1c-1.3-1.3-3.3-1.3-4.6 0l-15 14.8c-1.3 1.3-1.3 3.3 0 4.6 1.3 1.3 3.3 1.3 4.6 0l15-14.8c1.3-1.3 1.3-3.4 0-4.6z"/><path class="st5" d="M859.8 972c0 6.3 2.8 12 7.4 15.7h25.1c3.5-2.8 5.9-6.5 7-11.1.4-1.5.4-3.1.4-4.6 0-11.1-8.9-20.1-20.1-20.1-5 0-9.8 2-13.3 5-3.8 4-6.5 9.2-6.5 15.1z"/><path class="st6" d="M866 962c0 10.9 8.9 19.8 19.8 19.8 5.2 0 10-2 13.5-5.2.4-1.5.4-3.1.4-4.6 0-11.1-8.9-20.1-20.1-20.1-5 0-9.8 2-13.3 5-.1 1.8-.3 3.3-.3 5.1z"/><path class="st5" d="M115.1 1070.6c0 6.3 2.8 12 7.4 15.7h25.1c3.5-2.8 5.9-6.5 7-11.1.4-1.5.4-3.1.4-4.6 0-11.1-8.9-20.1-20.1-20.1-5 0-9.8 2-13.3 5-3.9 3.9-6.5 9.2-6.5 15.1z"/><path class="st6" d="M121.2 1060.5c0 10.9 8.9 19.8 19.8 19.8 5.2 0 10-2 13.5-5.2.4-1.5.4-3.1.4-4.6 0-11.1-8.9-20.1-20.1-20.1-5 0-9.8 2-13.3 5-.1 1.9-.3 3.4-.3 5.1z"/><path class="st5" d="M1236.1 894.9c0 6.3 2.8 12 7.4 15.7h25.1c3.5-2.8 5.9-6.5 7-11.1.4-1.5.4-3.1.4-4.6 0-11.1-8.9-20.1-20-20.1-5 0-9.8 2-13.3 5-4 3.8-6.6 9.2-6.6 15.1z"/><path class="st6" d="M1242.2 884.9c0 10.9 8.9 19.8 19.8 19.8 5.2 0 10-2 13.5-5.2.4-1.5.4-3.1.4-4.6 0-11.1-8.9-20.1-20-20.1-5 0-9.8 2-13.3 5-.2 1.8-.4 3.3-.4 5.1z"/><path class="st5" d="M588.2 886.7c0 6.3 2.8 12 7.4 15.7h25.1c3.5-2.8 5.9-6.5 7-11.1.4-1.5.4-3.1.4-4.6 0-11.1-8.9-20.1-20.1-20.1-5 0-9.8 2-13.3 5-3.9 3.7-6.5 9.2-6.5 15.1z"/><path class="st6" d="M594.3 876.6c0 10.9 8.9 19.8 19.8 19.8 5.2 0 10-2 13.5-5.2.4-1.5.4-3.1.4-4.6 0-11.1-8.9-20.1-20.1-20.1-5 0-9.8 2-13.3 5-.1 1.7-.3 3.4-.3 5.1z"/><path class="st5" d="M1828.2 768.9c0 6.3 2.8 12 7.4 15.7h25.1c3.5-2.8 5.9-6.5 7-11.1.4-1.5.4-3.1.4-4.6 0-11.1-8.9-20.1-20.1-20.1-5 0-9.8 2-13.3 5-3.9 3.8-6.5 9.3-6.5 15.1z"/><path class="st6" d="M1834.3 758.9c0 10.9 8.9 19.8 19.8 19.8 5.2 0 10-2 13.5-5.2.4-1.5.4-3.1.4-4.6 0-11.1-8.9-20.1-20.1-20.1-5 0-9.8 2-13.3 5-.1 1.6-.3 3.4-.3 5.1z"/></g></svg>